<svg xmlns="http://www.w3.org/2000/svg" viewBox="0 0 200 200" fill="none">
  <!-- Green circle arc -->
  <path d="M100 15 A85 85 0 0 1 185 100" stroke="#7CB342" stroke-width="10" fill="none" stroke-linecap="round"/>
  <path d="M15 100 A85 85 0 0 1 100 15" stroke="#7CB342" stroke-width="10" fill="none" stroke-linecap="round" opacity="0.5"/>
  <path d="M185 100 A85 85 0 0 1 100 185" stroke="#7CB342" stroke-width="10" fill="none" stroke-linecap="round" opacity="0.5"/>

  <!-- Shield -->
  <path d="M60 65 L100 45 L140 65 L140 125 C140 150 100 170 100 170 C100 170 60 150 60 125 Z" fill="#4A3728" opacity="0.9"/>
  <path d="M65 70 L100 52 L135 70 L135 123 C135 145 100 163 100 163 C100 163 65 145 65 123 Z" fill="none" stroke="#5D4437" stroke-width="2"/>

  <!-- Door/Window at top -->
  <rect x="82" y="38" width="16" height="22" rx="1" fill="#7CB342" stroke="#5E9B1E" stroke-width="1.5"/>
  <line x1="90" y1="38" x2="90" y2="60" stroke="#5E9B1E" stroke-width="1.5"/>
  <line x1="82" y1="49" x2="98" y2="49" stroke="#5E9B1E" stroke-width="1.5"/>
  <rect x="100" y="38" width="18" height="22" rx="1" fill="#4A3728" stroke="#5D4437" stroke-width="1.5"/>
  <line x1="109" y1="38" x2="109" y2="60" stroke="#5D4437" stroke-width="1"/>

  <!-- Wrench -->
  <g transform="translate(100,115) rotate(-45)">
    <rect x="-3" y="-25" width="6" height="50" rx="2" fill="#E8E8E8"/>
    <circle cx="0" cy="-25" r="9" fill="none" stroke="#E8E8E8" stroke-width="5"/>
    <circle cx="0" cy="-25" r="5" fill="#4A3728"/>
  </g>

  <!-- Screwdriver -->
  <g transform="translate(100,115) rotate(45)">
    <rect x="-3" y="-25" width="6" height="38" rx="1" fill="#E8E8E8"/>
    <rect x="-5" y="10" width="10" height="16" rx="2" fill="#7CB342"/>
    <polygon points="-2,-28 2,-28 1,-38 -1,-38" fill="#E8E8E8"/>
  </g>
</svg>